<?xml version='1.0' encoding='UTF-8' standalone='no'?>
<!-- Generator: Adobe Illustrator 16.0.0, SVG Export Plug-In . SVG Version: 6.00 Build 0)  -->
  <svg
  xmlns:inkscape="http://www.inkscape.org/namespaces/inkscape"
  xmlns:sodipodi="http://sodipodi.sourceforge.net/DTD/sodipodi-0.dtd"
  xmlns="http://www.w3.org/2000/svg"
  xmlns:svg="http://www.w3.org/2000/svg"
  enable-background="new -0.043 0 28.347 17.007"
  xml:space="preserve"
  version="1.1"
  viewBox="0 0 28.347 17.007"
  width="0.393708in"
  height="0.236208in"
  x="0px"
  y="0px"
  id="svg57"
  sodipodi:docname="svg.icon.JST-B3B-XH-A_breadboard.svg"
  inkscape:version="1.2.2 (b0a8486541, 2022-12-01)">
  <defs
    id="defs61"
  />
  <sodipodi:namedview
    id="namedview59"
    pagecolor="#ffffff"
    bordercolor="#000000"
    borderopacity="0.25"
    inkscape:showpageshadow="2"
    inkscape:pageopacity="0.0"
    inkscape:pagecheckerboard="0"
    inkscape:deskcolor="#d1d1d1"
    inkscape:document-units="in"
    showgrid="false"
    inkscape:zoom="22.627417"
    inkscape:cx="17.67767"
    inkscape:cy="9.3912619"
    inkscape:window-width="2560"
    inkscape:window-height="1362"
    inkscape:window-x="0"
    inkscape:window-y="27"
    inkscape:window-maximized="1"
    inkscape:current-layer="svg57"
  />
  <desc
    id="desc2">
    <referenceFile>JST-B3B-XH-A_breadboard.svg</referenceFile>
  </desc>
  <g
    id="breadboard"
    gorn="0.0.0.0.0"
    transform="translate(19.42384,25.687731)">
    <g
      transform="translate(-106.65418,-99.447685)"
      id="g12">
      <path
        d="M2.977-24.746h-16.543v3.463H2.977V-24.746z"
        id="path4286_4_"
        gorn="0.0.0.0.0.1"
        fill="#B9B9B9"
        transform="translate(106.65418,99.447685)"
      />
      <rect
        width="1.563"
        height="4.402"
        x="-15.129"
        fill="#B9B9B9"
        y="-25.685"
        id="rect4"
        transform="translate(106.65418,99.447685)"
      />
      <rect
        width="1.563"
        height="4.402"
        x="2.977"
        fill="#B9B9B9"
        y="-25.685"
        id="rect6"
        transform="translate(106.65418,99.447685)"
      />
      <path
        d="M5.337-25.688H8.88V-8.68H5.337V-25.688z"
        id="path4286_2_"
        gorn="0.0.0.0.0.3"
        fill="#B9B9B9"
        transform="translate(106.65418,99.447685)"
      />
      <path
        d="M-19.381-25.686h3.401v17.008h-3.401V-25.686z"
        id="path4286_3_"
        gorn="0.0.0.0.0.4"
        fill="#B9B9B9"
        transform="translate(106.65418,99.447685)"
      />
    </g>
    <g
      id="g206">
      <path
        d="M6.327-21.811h-23.244v9.259H6.327V-21.811z"
        id="path4286"
        gorn="0.0.0.0.0.11"
        fill="#E2E2E2"
      />
      <path
        d="M5.893-21.283h-22.376v8.203H5.893V-21.283z"
        id="path4286_1_"
        gorn="0.0.0.0.0.12"
        fill="#D0D0D0"
      />
      <path
        d="M6.327-21.283H4.872v8.203h1.455V-21.283z"
        id="path4286_5_"
        gorn="0.0.0.0.0.13"
        fill="#EFEFEF"
      />
      <path
        d="M-15.462-21.285h-1.455v8.203h1.455V-21.285z"
        id="path4286_6_"
        gorn="0.0.0.0.0.14"
        fill="#EFEFEF"
      />
    </g>
    <g
      transform="translate(-105.09513,-104.93867)"
      id="connector0pin">
      <rect
        x="-13.952"
        y="-18.798"
        width="3.231"
        height="3.231"
        rx="0.283"
        id="connector0terminal"
        fill="#9A916C"
        transform="translate(105.09513,104.93867)"
      />
      <path
        enable-background="new    "
        d="M92.234,86.948h1.049c0.156,0,0.283,0.126,0.283,0.283v1.049c0,0.157-0.127,0.284-0.283,0.284h-1.049c-0.157,0-0.284-0.127-0.284-0.284v-1.049C91.95,87.075,92.077,86.948,92.234,86.948z"
        id="path4154"
        opacity="0.95"
        gorn="0.0.0.0.0.15.0.0"
        fill="#8C8663"
        transform="translate(-2.4120127e-6)"
      />
      <path
        enable-background="new    "
        d="M94.231,89.231l-0.808-0.809c-0.051,0.051-0.063,0.143-0.141,0.143h-1.048c-0.079,0-0.091-0.092-0.143-0.143l-0.808,0.809c0.052,0.051,0.063,0.142,0.142,0.142h2.664C94.17,89.372,94.18,89.282,94.231,89.231z"
        id="path4217"
        opacity="0.95"
        gorn="0.0.0.0.0.15.0.1"
        fill="#5E5B43"
        transform="translate(-2.4120127e-6)"
      />
      <path
        enable-background="new    "
        d="M93.425,87.09c0.051,0.051,0.141,0.063,0.141,0.142v1.048c0,0.079-0.091,0.092-0.143,0.143l0.808,0.809c0.052-0.052,0.143-0.063,0.143-0.141v-2.667c0-0.078-0.091-0.089-0.143-0.141L93.425,87.09z"
        id="path4222"
        opacity="0.95"
        gorn="0.0.0.0.0.15.0.2"
        fill="#80795B"
        transform="translate(-2.4120127e-6)"
      />
      <path
        enable-background="new    "
        d="M91.285,86.283c-0.052,0.051-0.143,0.063-0.143,0.141v2.667c0,0.078,0.091,0.089,0.143,0.141l0.808-0.809c-0.052-0.051-0.143-0.063-0.143-0.143v-1.048c0-0.079,0.092-0.09,0.143-0.141L91.285,86.283z"
        id="path4220"
        opacity="0.95"
        gorn="0.0.0.0.0.15.0.3"
        fill="#9A916C"
        transform="translate(-2.4120127e-6)"
      />
      <path
        enable-background="new    "
        d="M91.285,86.283l0.808,0.808c0.052-0.052,0.063-0.142,0.143-0.142h1.048c0.079,0,0.092,0.089,0.143,0.141l0.806-0.807c-0.051-0.051-0.062-0.142-0.141-0.142h-2.664C91.348,86.141,91.337,86.232,91.285,86.283z"
        id="path4159"
        opacity="0.95"
        gorn="0.0.0.0.0.15.0.4"
        fill="#B8AF82"
        transform="translate(-2.4120127e-6)"
      />
    </g>
    <g
      transform="translate(-105.09539,-104.93867)"
      id="connector1pin">
      <rect
        x="-6.865"
        y="-18.798"
        width="3.231"
        height="3.231"
        rx="0.283"
        id="connector1terminal"
        fill="#9A916C"
        transform="translate(105.09513,104.93867)"
      />
      <path
        enable-background="new    "
        d="M99.321,86.948h1.049c0.156,0,0.283,0.126,0.283,0.283v1.049c0,0.157-0.127,0.284-0.283,0.284h-1.049c-0.156,0-0.283-0.127-0.283-0.284v-1.049C99.038,87.075,99.165,86.948,99.321,86.948z"
        id="path5450"
        opacity="0.95"
        gorn="0.0.0.0.0.16.0.0"
        fill="#8C8663"
        transform="translate(2.5876973e-6)"
      />
      <path
        enable-background="new    "
        d="M101.319,89.231l-0.808-0.809c-0.052,0.051-0.063,0.143-0.141,0.143h-1.049c-0.078,0-0.091-0.092-0.143-0.143l-0.808,0.809c0.052,0.051,0.063,0.142,0.143,0.142h2.664C101.257,89.372,101.269,89.282,101.319,89.231z"
        id="path5452"
        opacity="0.95"
        gorn="0.0.0.0.0.16.0.1"
        fill="#5E5B43"
        transform="translate(2.5876973e-6)"
      />
      <path
        enable-background="new    "
        d="M100.513,87.09c0.052,0.051,0.141,0.063,0.141,0.142v1.048c0,0.079-0.091,0.092-0.142,0.143l0.808,0.809c0.051-0.052,0.142-0.063,0.142-0.141v-2.667c0-0.078-0.091-0.089-0.142-0.141L100.513,87.09z"
        id="path5454"
        opacity="0.95"
        gorn="0.0.0.0.0.16.0.2"
        fill="#80795B"
        transform="translate(2.5876973e-6)"
      />
      <path
        enable-background="new    "
        d="M98.372,86.283c-0.051,0.051-0.142,0.063-0.142,0.141v2.667c0,0.078,0.091,0.089,0.142,0.141l0.808-0.809c-0.051-0.051-0.142-0.063-0.142-0.143v-1.048c0-0.079,0.091-0.09,0.142-0.141L98.372,86.283z"
        id="path5456"
        opacity="0.95"
        gorn="0.0.0.0.0.16.0.3"
        fill="#9A916C"
        transform="translate(2.5876973e-6)"
      />
      <path
        enable-background="new    "
        d="M98.372,86.283l0.808,0.808c0.052-0.052,0.063-0.142,0.143-0.142h1.049c0.078,0,0.091,0.089,0.142,0.141l0.807-0.807c-0.051-0.051-0.063-0.142-0.141-0.142h-2.664C98.436,86.141,98.424,86.232,98.372,86.283z"
        id="path5458"
        opacity="0.95"
        gorn="0.0.0.0.0.16.0.4"
        fill="#B8AF82"
        transform="translate(2.5876973e-6)"
      />
    </g>
    <g
      transform="translate(-105.09513,-104.93867)"
      id="connector2pin">
      <rect
        x="0.224"
        y="-18.798"
        width="3.231"
        height="3.231"
        rx="0.283"
        id="connector2terminal"
        fill="#9A916C"
        transform="translate(105.09513,104.93867)"
      />
      <path
        enable-background="new    "
        d="M106.408,86.947h1.049c0.156,0,0.283,0.127,0.283,0.284v1.049c0,0.156-0.127,0.283-0.283,0.283h-1.049c-0.156,0-0.283-0.127-0.283-0.283v-1.049C106.125,87.075,106.252,86.947,106.408,86.947z"
        id="path5464"
        opacity="0.95"
        gorn="0.0.0.0.0.17.0.0"
        fill="#8C8663"
        transform="translate(-2.4120127e-6)"
      />
      <path
        enable-background="new    "
        d="M108.406,89.229l-0.809-0.808c-0.051,0.052-0.063,0.142-0.141,0.142h-1.049c-0.078,0-0.09-0.09-0.143-0.142l-0.807,0.808c0.051,0.052,0.063,0.143,0.143,0.143h2.664C108.344,89.372,108.356,89.28,108.406,89.229z"
        id="path5466"
        opacity="0.95"
        gorn="0.0.0.0.0.17.0.1"
        fill="#5E5B43"
        transform="translate(-2.4120127e-6)"
      />
      <path
        enable-background="new    "
        d="M107.6,87.088c0.051,0.051,0.141,0.064,0.141,0.143v1.049c0,0.078-0.092,0.09-0.143,0.142l0.809,0.808c0.051-0.051,0.141-0.063,0.141-0.141v-2.666c0-0.078-0.09-0.089-0.141-0.141L107.6,87.088z"
        id="path5468"
        opacity="0.95"
        gorn="0.0.0.0.0.17.0.2"
        fill="#80795B"
        transform="translate(-2.4120127e-6)"
      />
      <path
        enable-background="new    "
        d="M105.459,86.282c-0.051,0.051-0.143,0.063-0.143,0.141v2.666c0,0.078,0.092,0.09,0.143,0.141l0.807-0.808c-0.051-0.052-0.141-0.063-0.141-0.142v-1.049c0-0.078,0.09-0.09,0.141-0.141L105.459,86.282z"
        id="path5470"
        opacity="0.95"
        gorn="0.0.0.0.0.17.0.3"
        fill="#9A916C"
        transform="translate(-2.4120127e-6)"
      />
      <path
        enable-background="new    "
        d="M105.459,86.282l0.807,0.808c0.053-0.051,0.064-0.142,0.143-0.142h1.049c0.078,0,0.092,0.089,0.143,0.14l0.807-0.806c-0.051-0.051-0.063-0.142-0.141-0.142h-2.664C105.522,86.14,105.51,86.231,105.459,86.282z"
        id="path5472"
        opacity="0.95"
        gorn="0.0.0.0.0.17.0.4"
        fill="#B8AF82"
        transform="translate(-2.4120127e-6)"
      />
    </g>
  </g>
</svg>
